<svg xmlns="http://www.w3.org/2000/svg" viewBox="0 0 100 100" width="100" height="100" role="img" aria-label="combustion_oil, solar"><path d="M50 50 L50.000 0.000 A50 50 0 0 1 50.000 100.000 Z" fill="#475569"/><path d="M50 50 L50.000 100.000 A50 50 0 0 1 50.000 0.000 Z" fill="#f59e0b"/><line x1="50" y1="50" x2="50.000" y2="0.000" stroke="#fff" stroke-width="2"/><line x1="50" y1="50" x2="50.000" y2="100.000" stroke="#fff" stroke-width="2"/><svg x="56.00" y="35.00" width="30" height="30" viewBox="0 0 24 24">
    <g fill="#fff">
      <path d="M12 9.5 C 9.6 12.8, 8.2 14.7, 8.2 16.6 a3.8 3.8 0 0 0 7.6 0 C 15.8 14.7, 14.4 12.8, 12 9.5 Z"/>
      <path d="M12 2.5 C 13.2 4.6, 14 5.6, 14 7.1 a2 2 0 0 1 -4 0 c0 -0.9 0.4 -1.5 1 -2 c-0.1 0.8 0.3 1.2 0.6 1.4 c0.55 -1 -0.5 -2.3 -0.6 -4 Z"/>
    </g></svg><svg x="14.00" y="35.00" width="30" height="30" viewBox="0 0 24 24">
    <circle cx="12" cy="12" r="4.4" fill="#fff"/>
    <g stroke="#fff" stroke-width="2" stroke-linecap="round">
      <line x1="12" y1="1.6" x2="12" y2="4"/>
      <line x1="12" y1="20" x2="12" y2="22.4"/>
      <line x1="1.6" y1="12" x2="4" y2="12"/>
      <line x1="20" y1="12" x2="22.4" y2="12"/>
      <line x1="4.4" y1="4.4" x2="6.1" y2="6.1"/>
      <line x1="17.9" y1="17.9" x2="19.6" y2="19.6"/>
      <line x1="19.6" y1="4.4" x2="17.9" y2="6.1"/>
      <line x1="4.4" y1="19.6" x2="6.1" y2="17.9"/>
    </g></svg></svg>